<?xml version="1.0" standalone="no"?>
<!DOCTYPE svg PUBLIC "-//W3C//DTD SVG 20010904//EN"
 "http://www.w3.org/TR/2001/REC-SVG-20010904/DTD/svg10.dtd">
<svg version="1.0" xmlns="http://www.w3.org/2000/svg"
 width="120.000000pt" height="120.000000pt" viewBox="0 0 120.000000 120.000000"
 preserveAspectRatio="xMidYMid meet">
<metadata>
Created by potrace 1.11, written by Peter Selinger 2001-2013
</metadata>
<g transform="translate(0.000000,120.000000) scale(0.100000,-0.100000)"
fill="#000000" stroke="none">
<path d="M449 1065 c-234 -63 -401 -302 -401 -570 1 -282 190 -447 446 -388
105 24 188 83 262 187 l22 30 0 -43 c1 -62 39 -131 86 -157 68 -38 179 -20
244 39 28 26 28 28 -4 79 -22 35 -28 39 -38 27 -18 -25 -60 -49 -94 -53 -23
-2 -37 3 -54 21 -21 22 -23 36 -27 143 -3 114 -2 119 26 171 17 30 63 117 103
194 85 163 107 203 144 268 18 32 23 47 14 48 -16 1 -118 1 -134 0 -7 -1 -15
-13 -18 -28 -9 -37 -138 -304 -144 -298 -3 2 -6 37 -7 77 -5 122 -43 188 -133
234 -50 25 -69 29 -152 30 -52 1 -116 -4 -141 -11z m221 -117 c32 -16 52 -36
70 -68 24 -43 25 -53 25 -210 l0 -165 -42 -70 c-100 -170 -212 -241 -347 -221
-52 8 -119 50 -147 92 -83 125 -44 391 79 535 41 47 122 103 173 117 62 18
141 14 189 -10z"/>
</g>
</svg>
